<svg width="60" height="60" viewBox="0 0 60 60" fill="none" xmlns="http://www.w3.org/2000/svg">
  <path d="M30 55C43.8071 55 55 43.8071 55 30C55 16.1929 43.8071 5 30 5C16.1929 5 5 16.1929 5 30C5 43.8071 16.1929 55 30 55Z" stroke="white" stroke-width="2" stroke-linecap="round" stroke-linejoin="round"/>
  <path d="M30 5C36.6304 5 43.0391 7.63214 47.7782 12.3713C52.5174 17.1104 55.1495 23.5191 55.1495 30.1495C55.1495 36.7799 52.5174 43.1886 47.7782 47.9277C43.0391 52.6669 36.6304 55.299 30 55.299" stroke="white" stroke-width="2" stroke-linecap="round" stroke-linejoin="round"/>
  <path d="M5 30H55" stroke="white" stroke-width="2" stroke-linecap="round" stroke-linejoin="round"/>
  <path d="M30 5V55" stroke="white" stroke-width="2" stroke-linecap="round" stroke-linejoin="round"/>
</svg> 